<svg width="800" height="600" xmlns="http://www.w3.org/2000/svg">
 <g>
  <title>Layer 1</title>
  <path id="svg_2" fill="rgb(69,216,172)" stroke="rgb(69,216,172)" opacity="0.96471" d="m385.67352,-1.37262l25.84743,0l1.07698,1.07698l15.07767,0l1.07698,1.07698l9.69279,0l11.84674,2.15395l2.15395,-1.07698l2.15395,2.15395l14.00069,2.15395l1.61546,-0.53849l-0.53849,1.61546l17.23162,4.30791l1.61546,-0.53849q-0.86158,2.80014 2.69244,1.61546l29.07836,11.84674l31.23231,18.3086l1.61546,-0.53849l-0.53849,1.61546l4.30791,2.15395l2.15395,-1.07698l3.23093,5.38488l17.23162,12.92372q1.40007,-2.36935 2.69244,0.53849q-2.36935,1.40007 0.53849,2.69244l9.69279,7.53883l1.61546,-0.53849l-1.07698,1.07698l8.07732,8.07732l1.61546,-0.53849q-2.36935,1.40007 0.53849,2.69244l1.61546,-0.53849l0,2.15395q-0.86158,2.80014 2.69244,1.61546l-0.53849,1.61546l4.84639,4.84639l1.61546,-0.53849q-2.69244,1.61546 1.07698,3.23093l12.92372,16.15465l-2.15395,3.76942l-3.23093,1.61546l-2.69244,3.76942l-16.69313,15.61616l0.53849,1.61546q-1.83086,-3.33863 -3.76942,-1.61546l1.07698,-2.15395l-5.92337,-7.00035l-1.61546,0.53849q2.69244,-1.61546 -1.07698,-3.23093l-14.53918,-16.69313l-1.61546,0.53849l1.07698,-1.07698l-14.53918,-14.53918l-3.23093,-2.15395l-1.61546,0.53849l1.07698,-1.07698l-3.76942,-3.76942l-12.92372,-9.69279l-1.61546,0.53849q0.86158,-2.36935 -1.61546,-1.61546l-2.69244,-0.53849q2.47705,-1.29237 -0.53849,-2.69244l-15.07767,-8.61581l1.07698,2.15395l1.61546,0.53849l-1.61546,0.53849l-3.23093,-5.38488l-5.38488,-2.15395l-1.61546,0.53849l0.53849,-1.61546l-23.69348,-10.76976l-18.3086,-5.38488l-2.15395,1.07698l0,-1.07698l1.61546,-0.53849l-28.53987,-7.00035l-28.00139,-2.15395l0,2.15395l-4.30791,-3.23093l-22.6165,0l-1.07698,1.07698l-21.53953,1.07698l-22.6165,4.30791q-20.24716,4.5233 -37.15568,12.38523l0.53849,1.61546l-3.23093,-1.07698l-27.4629,14.53918l0.53849,1.61546l-2.15395,-1.07698l-2.69244,1.61546l0.53849,1.61546l-2.15395,0l-19.92406,13.4622q2.47705,1.29237 -0.53849,2.69244l-2.15395,-1.07698l-8.07732,6.46186q1.18467,2.90784 -1.61546,2.15395l-16.69313,16.69313l0,1.61546l-3.23093,1.61546q-22.6165,24.23197 -36.6172,57.07975l1.07698,2.15395l-1.07698,0l-0.53849,-1.61546l-12.38523,30.69383l-4.30791,20.46255l1.07698,2.15395l-1.07698,0l-0.53849,-1.61546l-3.76942,19.92406l0,7.53883l-1.07698,1.07698l-1.07698,28.00139l1.07698,5.38488l-1.07698,2.15395l1.07698,1.07698l0,11.84674l1.07698,1.07698l1.07698,17.23162l7.53883,31.23231q10.76976,34.46324 29.61685,60.84916l1.07698,-2.15395l1.61546,2.69244l-1.07698,2.15395l18.84709,23.15499l1.61546,-0.53849q-2.69244,1.61546 1.07698,3.23093l14.53918,15.61616l33.38627,25.84743l22.6165,12.92372l4.84639,1.07698l0.53849,-2.15395l0.53849,1.61546l-0.53849,1.61546l2.15395,-1.07698l0,2.15395l15.07767,6.46186l28.00139,8.61581l23.69348,4.30791l24.77046,1.07698l1.07698,1.07698l2.15395,0l11.84674,0l2.15395,-1.07698l3.23093,1.07698l1.07698,-1.07698l22.6165,-1.07698l18.84709,-3.76942l-0.53849,-1.61546l5.38488,1.07698l28.53987,-8.61581l0.53849,-2.15395l2.15395,1.07698l17.77011,-8.07732l-2.15395,-1.07698l1.61546,-0.53849l2.15395,1.07698l14.53918,-8.07732l-2.15395,-1.07698l1.61546,-0.53849l2.15395,1.07698l14.53918,-9.1543l-0.53849,-1.61546q1.61546,2.69244 3.23093,-1.07698l8.61581,-5.38488l22.6165,-20.46255l1.61546,0l1.61546,-3.23093q2.47705,0.86158 1.61546,-1.61546q9.69279,-8.07732 16.15465,-19.38557q-2.36935,-1.29237 0.53849,-2.69244q1.40007,2.47705 2.69244,-0.53849l2.15395,-3.23093l-1.07698,-2.15395l1.07698,0l0.53849,1.61546q21.86262,-29.29376 33.92475,-68.388l8.61581,-40.9251l0,-9.69279l1.07698,-1.07698l0,-40.38661l-2.15395,-0.53849l1.07698,-3.23093l-2.15395,-19.38557l-3.23093,-10.76976l2.15395,-3.23093l-0.53849,-1.61546l2.15395,0l19.38557,-17.23162l7.00035,-4.30791l5.38488,18.84709l3.23093,17.23162l1.07698,17.23162l1.07698,1.07698l0,15.07767l1.07698,1.07698l0,22.6165l-1.07698,1.07698l0,15.07767l-1.07698,1.07698l0,8.61581l-1.07698,1.07698l-1.07698,11.84674l0.53849,1.61546l-1.61546,-0.53849l-3.23093,18.3086l-7.53883,23.69348l0.53849,1.61546l-1.61546,-0.53849l-8.61581,22.6165l0.53849,1.61546l-1.61546,-0.53849l-14.00069,25.84743l0.53849,1.61546q-1.29237,-2.36935 -2.69244,0.53849l-12.92372,19.38557l0.53849,1.61546q-1.29237,-2.36935 -2.69244,0.53849l-23.15499,27.4629q-2.36935,-0.75388 -1.61546,1.61546l-18.3086,16.15465l0.53849,1.61546l-2.15395,0l-8.07732,5.92337q2.47705,1.40007 -0.53849,2.69244l-2.15395,-1.07698l-7.00035,5.92337l0.53849,1.61546l-2.15395,-1.07698l-10.23128,7.00035l0.53849,1.61546l-2.15395,-1.07698q-15.29306,10.55437 -33.92475,17.77011l0.53849,1.61546l-2.15395,-1.07698l-5.92337,2.69244l2.15395,1.07698l-1.61546,0.53849l-3.23093,-1.07698l-19.38557,7.53883l-32.30929,7.53883l-16.15465,1.07698l-1.07698,1.07698l-11.84674,0l-1.07698,1.07698l-38.77115,0l-1.07698,-1.07698l-11.84674,0l-1.07698,-1.07698l-14.00069,-1.07698l0,2.15395l-2.15395,-1.07698l-1.61546,0.53849q-0.86158,-2.80014 2.69244,-1.61546l0,-1.07698l-9.69279,-1.07698l-21.53953,-5.38488l-2.15395,1.07698l0,-1.07698l1.61546,-0.53849l-5.92337,-1.61546l-1.61546,0.53849l0.53849,-1.61546l-19.92406,-6.46186l-0.53849,2.15395l-1.07698,-2.15395l1.61546,-0.53849l-30.69383,-14.53918l-1.61546,0.53849q2.47705,-1.40007 -0.53849,-2.69244l-18.3086,-10.76976l-2.15395,1.07698l0,-1.07698l1.61546,-0.53849l-3.23093,-1.61546l-0.53849,3.23093l-0.53849,-2.69244q2.90784,-1.83086 -1.61546,-3.76942l-5.38488,-3.23093l1.07698,3.23093l-5.38488,-7.53883q-16.47774,-11.52365 -29.61685,-26.38592l-12.38523,-14.53918l-1.61546,0.53849l1.07698,-2.15395q-2.15395,-3.98481 -4.30791,-2.15395l0,-2.15395l-4.84639,-7.00035l-1.61546,0.53849l1.07698,-2.15395l-12.38523,-17.77011l-1.61546,0.53849l1.07698,-2.15395q-14.43148,-21.64722 -23.15499,-49.00242l-1.61546,0.53849l1.07698,-3.23093l-5.38488,-18.84709l-3.23093,-1.61546l-1.07698,-3.23093l2.15395,1.07698l0.53849,2.69244l0.53849,-3.76942l-4.30791,-16.15465l0,-6.46186l-2.15395,-7.53883l0,-9.69279l-1.07698,-1.07698l0,-49.54091l1.07698,-1.07698l0,-9.69279l1.07698,-1.07698l3.23093,-24.77046l5.38488,-20.46255l9.69279,-26.92441l-1.07698,-2.15395l1.07698,0l0.53849,1.61546l8.07732,-17.77011l-0.53849,-1.61546l1.61546,0.53849l1.07698,-3.23093l-0.53849,-1.61546l1.61546,0.53849q9.47739,-19.60097 22.6165,-35.54022l-0.53849,-1.61546q1.40007,2.47705 2.69244,-0.53849l6.46186,-8.61581l-0.53849,-1.61546q1.40007,2.47705 2.69244,-0.53849l17.23162,-19.38557q-2.36935,-1.29237 0.53849,-2.69244l2.15395,0l3.23093,-2.15395q18.84709,-19.38557 43.61754,-32.84778l-0.53849,-1.61546l2.15395,1.07698l7.00035,-4.84639q-2.36935,-1.29237 0.53849,-2.69244l0,2.15395l22.07802,-10.23128l-0.53849,-1.61546l2.69244,1.07698l0.53849,-2.15395l2.15395,1.07698l11.84674,-5.38488l29.07836,-8.61581l30.15534,-5.38488l24.77046,-1.07698l1.07698,-1.07698z"/>
  <path id="svg_3" fill="rgb(69,216,172)" stroke="rgb(69,216,172)" opacity="0.96471" d="m401.82816,34.1676l2.69244,0.53849l-2.69244,0.53849l0,-1.07698z"/>
  <path id="svg_4" fill="rgb(69,216,172)" stroke="rgb(69,216,172)" opacity="0.96471" d="m377.05771,35.24458l4.84639,0.53849l-4.84639,0.53849l0,-1.07698z"/>
  <path id="svg_5" fill="rgb(69,216,172)" stroke="rgb(69,216,172)" opacity="0.96471" d="m246.74357,37.39853l1.07698,2.15395l-1.07698,-2.15395z"/>
  <path id="svg_6" fill="rgb(69,216,172)" stroke="rgb(69,216,172)" opacity="0.96471" d="m462.13884,42.78341l2.69244,1.61546l-1.61546,-0.53849l-1.07698,-1.07698z"/>
  <path id="svg_7" fill="rgb(69,216,172)" stroke="rgb(69,216,172)" opacity="0.96471" d="m383.51957,97.7092l2.69244,0.53849l-2.69244,0.53849l0,-1.07698z"/>
  <path id="svg_8" fill="rgb(69,216,172)" stroke="rgb(69,216,172)" opacity="0.96471" d="m388.90445,98.78618l16.15465,0l5.38488,1.07698l19.38557,7.53883l1.61546,-0.53849q-2.36935,1.40007 0.53849,2.69244l7.53883,5.38488l1.61546,-0.53849l-1.07698,1.07698l8.61581,8.61581l9.69279,17.23162l3.23093,10.76976l0,9.69279l1.07698,1.07698l-3.23093,18.3086l-4.30791,10.76976q-7.64653,12.81602 -18.84709,22.07802l-14.00069,8.61581l-9.69279,3.23093l-12.92372,1.07698l-1.07698,1.07698l-1.07698,-1.07698l-16.15465,-1.07698l-11.84674,-4.30791l-1.61546,0.53849l0.53849,-1.61546l-2.15395,1.07698l-1.07698,-3.23093q-12.49293,-5.81567 -19.92406,-16.69313q-7.43114,-8.18502 -10.23128,-21.00104l-1.07698,2.15395l-1.61546,-3.76942l1.07698,0l0.53849,1.61546l0.53849,-3.76942q-3.55402,-7.75423 -2.15395,-20.46255q4.95409,-30.04764 25.30894,-44.69452l8.07732,-4.84639l-2.15395,-1.07698l1.61546,-0.53849l2.15395,1.07698l5.38488,-3.23093l16.15465,-4.30791z"/>
  <path id="svg_9" fill="rgb(69,216,172)" stroke="rgb(69,216,172)" opacity="0.96471" d="m663.53342,111.7099q10.23128,-0.53849 15.07767,4.30791l1.07698,-2.15395l0.53849,1.61546l-1.07698,1.07698l4.30791,4.30791q4.20021,4.4156 3.23093,14.00069l-2.15395,6.46186l-8.61581,9.69279l0.53849,1.61546l-1.07698,-1.07698l-17.77011,17.77011l-2.15395,3.23093l0.53849,1.61546q-1.61546,-2.69244 -3.23093,1.07698q-2.36935,-0.75388 -1.61546,1.61546l-16.15465,17.23162l0.53849,1.61546l-1.07698,-1.07698l-10.23128,10.23128l-54.92579,59.2337l0.53849,1.61546l-1.07698,-1.07698l-5.92337,5.92337l-36.6172,39.84812l0.53849,1.61546l-1.07698,-1.07698l-8.07732,8.07732l0.53849,1.61546l-1.61546,-0.53849l-15.07767,16.15465l0,1.61546l-6.46186,4.84639l-16.15465,18.3086l0.53849,1.61546l-1.07698,-1.07698l-12.38523,12.38523l-28.00139,30.15534l0.53849,1.61546l-1.07698,-1.07698l-4.84639,4.84639l-3.23093,4.30791l2.15395,1.07698l-1.61546,0.53849l-1.07698,-1.07698l-8.07732,8.07732l-2.69244,3.76942l-3.23093,2.15395q-3.98481,2.15395 -2.15395,4.30791l-2.15395,-1.07698q-7.00035,7.00035 -20.46255,7.53883l-11.84674,-2.15395l-9.69279,-5.38488l-17.23162,-17.23162l-2.15395,0q-2.36935,0.86158 -1.61546,-1.61546l1.07698,-1.07698l-7.00035,-7.00035q-1.29237,2.47705 -2.69244,-0.53849l2.15395,0l-1.61546,-2.69244q-2.36935,0.86158 -1.61546,-1.61546l-13.4622,-13.4622l-1.61546,0.53849l0,-2.15395l-2.15395,-3.23093l-3.23093,-1.07698l1.07698,-1.07698l-8.07732,-8.07732l-1.61546,0.53849q3.01553,-1.93856 -1.61546,-3.76942l-3.23093,2.15395l1.07698,-2.15395l1.61546,-0.53849l-4.84639,-4.84639q-1.29237,2.47705 -2.69244,-0.53849l0,-2.15395l-9.1543,-10.23128l-1.61546,0.53849l1.07698,-1.07698l-6.46186,-6.46186q0.86158,-2.36935 -1.61546,-1.61546l0,2.15395q-2.90784,-1.29237 -0.53849,-2.69244l-9.69279,-12.38523l-3.23093,-1.61546l-30.15534,-32.30929l-5.38488,-12.92372l0,-11.84674l5.38488,-12.92372l-0.53849,-1.61546q1.40007,2.47705 2.69244,-0.53849l7.00035,-8.07732l2.69244,-1.61546l-0.53849,-1.61546l2.15395,1.07698l11.84674,-4.30791l2.15395,0l8.61581,1.07698l7.53883,3.23093l1.61546,-0.53849q-2.36935,1.29237 0.53849,2.69244l6.46186,4.30791l36.6172,36.6172l1.61546,-0.53849l-1.07698,1.07698l8.07732,8.07732l1.61546,-0.53849l-1.07698,1.07698l10.76976,10.76976q-0.75388,2.80014 2.15395,1.61546l0,2.15395l1.61546,0l2.69244,1.07698l5.92337,8.61581l7.00035,5.92337l2.15395,3.23093l1.61546,-0.53849l1.61546,0.53849q-2.69244,1.61546 1.07698,3.23093l2.69244,3.76942l3.76942,2.69244l2.15395,3.23093l8.07732,8.07732l1.61546,-0.53849l-0.53849,1.61546q2.47705,0.86158 1.61546,-1.61546l26.92441,-24.77046q-2.47705,-1.29237 0.53849,-2.69244l2.15395,1.07698l9.1543,-9.1543l-0.53849,-1.61546q1.61546,2.69244 3.23093,-1.07698l8.07732,-7.00035q-0.86158,-2.80014 2.69244,-1.61546l11.30825,-10.23128l-0.53849,-1.61546l1.07698,1.07698l5.38488,-5.38488l15.61616,-13.4622l-0.53849,-1.61546q1.61546,2.69244 3.23093,-1.07698l5.92337,-4.84639l-0.53849,-1.61546l1.07698,1.07698l4.30791,-4.30791l5.92337,-4.84639q-2.36935,-1.40007 0.53849,-2.69244q1.40007,2.47705 2.69244,-0.53849l-0.53849,-1.61546l2.15395,0l17.77011,-15.61616q-0.75388,-2.36935 1.61546,-1.61546l8.07732,-7.00035l-0.53849,-1.61546l1.07698,1.07698l3.23093,-3.23093l9.1543,-8.07732l-0.53849,-1.61546l2.15395,0l11.30825,-9.1543l-0.53849,-1.61546l1.07698,1.07698l6.46186,-6.46186l15.61616,-13.4622l-0.53849,-1.61546l1.07698,1.07698l4.84639,-4.84639l-0.53849,-1.61546l2.15395,1.07698l39.30964,-36.07871q-2.36935,-1.40007 0.53849,-2.69244l1.07698,1.07698l3.23093,-3.23093l24.77046,-21.53953l5.38488,-3.23093l5.38488,-1.07698z"/>
  <path id="svg_10" fill="rgb(69,216,172)" stroke="rgb(69,216,172)" opacity="0.96471" d="m639.83994,257.1017l0.53849,2.69244l-1.07698,0l0.53849,-2.69244z"/>
  <path id="svg_11" fill="rgb(69,216,172)" stroke="rgb(69,216,172)" opacity="0.96471" d="m639.83994,265.71751l0.53849,2.69244l-1.07698,0l0.53849,-2.69244z"/>
  <path id="svg_12" fill="rgb(69,216,172)" stroke="rgb(69,216,172)" opacity="0.96471" d="m639.83994,285.10309l0.53849,2.69244l-1.07698,0l0.53849,-2.69244z"/>
  <path id="svg_13" fill="rgb(69,216,172)" stroke="rgb(69,216,172)" opacity="0.96471" d="m158.43151,420.80211l-1.07698,2.15395l1.07698,-2.15395z"/>
  <path id="svg_14" fill="rgb(69,216,172)" stroke="rgb(69,216,172)" opacity="0.96471" d="m444.90722,551.11625l2.69244,0.53849l-2.69244,0.53849l0,-1.07698z"/>
 </g>

</svg>